<svg width="512" height="512" xmlns="http://www.w3.org/2000/svg"><circle cx="253.771" cy="256.588" r="235.482"/><path d="M437.02 74.98C388.667 26.628 324.38 0 256 0S123.333 26.628 74.98 74.98C26.629 123.333 0 187.621 0 256s26.629 132.667 74.981 181.019S187.62 512 256 512s132.667-26.628 181.02-74.98C485.371 388.667 512 324.379 512 256s-26.629-132.667-74.98-181.02zm-21.213 340.827C373.12 458.492 316.366 482 256 482c-60.367 0-117.12-23.508-159.806-66.194C53.508 373.12 30 316.366 30 256c0-60.366 23.508-117.12 66.194-159.807C138.88 53.508 195.633 30 256 30c60.366 0 117.12 23.508 159.807 66.193C458.492 138.88 482 195.634 482 256c0 60.366-23.508 117.12-66.193 159.807z"/><path fill="#fff" d="M281.061 122.93v180.588c0 16.665-13.57 30.223-30.25 30.223s-30.25-13.558-30.25-30.223v-7.493h-45v7.493c0 41.456 33.757 75.183 75.25 75.183s75.25-33.727 75.25-75.183V122.93z"/></svg>